<mxfile host="app.diagrams.net" modified="2022-01-05T05:47:22.560Z" agent="5.0 (X11; Linux x86_64) AppleWebKit/537.36 (KHTML, like Gecko) Chrome/92.0.4515.159 Safari/537.36" etag="zAYKFUEaBODAmhcuZ2oU" version="16.2.1" type="github">
  <diagram id="wFE0QG_FPsp0jaGvCLVb" name="Page-1">
    <mxGraphModel dx="1673" dy="1944" grid="1" gridSize="10" guides="1" tooltips="1" connect="1" arrows="1" fold="1" page="1" pageScale="1" pageWidth="850" pageHeight="1100" math="0" shadow="0">
      <root>
        <mxCell id="0" />
        <mxCell id="1" parent="0" />
        <mxCell id="GP6uK6T3DXAP5hCjfbZW-2" value="" style="whiteSpace=wrap;html=1;aspect=fixed;" vertex="1" parent="1">
          <mxGeometry x="50" y="-50" width="770" height="770" as="geometry" />
        </mxCell>
        <mxCell id="GP6uK6T3DXAP5hCjfbZW-10" value="" style="endArrow=none;html=1;rounded=0;dashed=1;dashPattern=1 2;exitX=1;exitY=0.067;exitDx=0;exitDy=0;exitPerimeter=0;" edge="1" parent="1" source="GP6uK6T3DXAP5hCjfbZW-2">
          <mxGeometry relative="1" as="geometry">
            <mxPoint x="360" y="360" as="sourcePoint" />
            <mxPoint x="40" y="2" as="targetPoint" />
          </mxGeometry>
        </mxCell>
        <mxCell id="GP6uK6T3DXAP5hCjfbZW-12" value="" style="endArrow=none;html=1;rounded=0;dashed=1;dashPattern=1 2;exitX=0.25;exitY=0;exitDx=0;exitDy=0;entryX=0.25;entryY=1;entryDx=0;entryDy=0;" edge="1" parent="1" source="GP6uK6T3DXAP5hCjfbZW-2" target="GP6uK6T3DXAP5hCjfbZW-2">
          <mxGeometry relative="1" as="geometry">
            <mxPoint x="330" y="260" as="sourcePoint" />
            <mxPoint x="250" y="720" as="targetPoint" />
          </mxGeometry>
        </mxCell>
        <mxCell id="GP6uK6T3DXAP5hCjfbZW-14" value="" style="endArrow=none;html=1;rounded=0;dashed=1;dashPattern=1 2;exitX=0.75;exitY=0;exitDx=0;exitDy=0;entryX=0.75;entryY=1;entryDx=0;entryDy=0;" edge="1" parent="1" source="GP6uK6T3DXAP5hCjfbZW-2" target="GP6uK6T3DXAP5hCjfbZW-2">
          <mxGeometry relative="1" as="geometry">
            <mxPoint x="410" y="270" as="sourcePoint" />
            <mxPoint x="570" y="270" as="targetPoint" />
          </mxGeometry>
        </mxCell>
        <mxCell id="GP6uK6T3DXAP5hCjfbZW-16" value="客户端" style="text;strokeColor=none;fillColor=none;align=left;verticalAlign=middle;spacingLeft=4;spacingRight=4;overflow=hidden;points=[[0,0.5],[1,0.5]];portConstraint=eastwest;rotatable=0;spacing=3;fontSize=20;" vertex="1" parent="1">
          <mxGeometry x="100" y="-40" width="80" height="30" as="geometry" />
        </mxCell>
        <mxCell id="GP6uK6T3DXAP5hCjfbZW-17" value="服务端" style="text;strokeColor=none;fillColor=none;align=left;verticalAlign=middle;spacingLeft=4;spacingRight=4;overflow=hidden;points=[[0,0.5],[1,0.5]];portConstraint=eastwest;rotatable=0;spacing=3;fontSize=20;" vertex="1" parent="1">
          <mxGeometry x="400" y="-40" width="80" height="30" as="geometry" />
        </mxCell>
        <mxCell id="GP6uK6T3DXAP5hCjfbZW-18" value="存储" style="text;strokeColor=none;fillColor=none;align=left;verticalAlign=middle;spacingLeft=4;spacingRight=4;overflow=hidden;points=[[0,0.5],[1,0.5]];portConstraint=eastwest;rotatable=0;spacing=3;fontSize=20;" vertex="1" parent="1">
          <mxGeometry x="690" y="-40" width="80" height="30" as="geometry" />
        </mxCell>
        <mxCell id="GP6uK6T3DXAP5hCjfbZW-19" value="用户登录" style="rounded=1;whiteSpace=wrap;html=1;fontSize=20;" vertex="1" parent="1">
          <mxGeometry x="80" y="30" width="120" height="60" as="geometry" />
        </mxCell>
        <mxCell id="GP6uK6T3DXAP5hCjfbZW-21" value="登录鉴权" style="rounded=1;whiteSpace=wrap;html=1;fontSize=20;" vertex="1" parent="1">
          <mxGeometry x="280" y="30" width="120" height="60" as="geometry" />
        </mxCell>
        <mxCell id="GP6uK6T3DXAP5hCjfbZW-22" value="用户模块" style="rounded=1;whiteSpace=wrap;html=1;fontSize=20;" vertex="1" parent="1">
          <mxGeometry x="450" y="30" width="120" height="60" as="geometry" />
        </mxCell>
        <mxCell id="GP6uK6T3DXAP5hCjfbZW-23" value="存储用户信息" style="rounded=1;whiteSpace=wrap;html=1;fontSize=20;" vertex="1" parent="1">
          <mxGeometry x="670" y="30" width="120" height="60" as="geometry" />
        </mxCell>
        <mxCell id="GP6uK6T3DXAP5hCjfbZW-28" value="MYSQL" style="shape=cylinder3;whiteSpace=wrap;html=1;boundedLbl=1;backgroundOutline=1;size=15;fontSize=20;" vertex="1" parent="1">
          <mxGeometry x="690" y="270" width="80" height="160" as="geometry" />
        </mxCell>
        <mxCell id="GP6uK6T3DXAP5hCjfbZW-30" value="软件信息" style="rounded=1;whiteSpace=wrap;html=1;fontSize=20;" vertex="1" parent="1">
          <mxGeometry x="80" y="200" width="120" height="60" as="geometry" />
        </mxCell>
        <mxCell id="GP6uK6T3DXAP5hCjfbZW-32" value="软件模块" style="rounded=1;whiteSpace=wrap;html=1;fontSize=20;" vertex="1" parent="1">
          <mxGeometry x="350" y="200" width="120" height="60" as="geometry" />
        </mxCell>
        <mxCell id="GP6uK6T3DXAP5hCjfbZW-33" value="" style="endArrow=classic;startArrow=classic;html=1;rounded=0;fontSize=20;exitX=1;exitY=0.5;exitDx=0;exitDy=0;" edge="1" parent="1" source="GP6uK6T3DXAP5hCjfbZW-19" target="GP6uK6T3DXAP5hCjfbZW-21">
          <mxGeometry width="50" height="50" relative="1" as="geometry">
            <mxPoint x="400" y="300" as="sourcePoint" />
            <mxPoint x="450" y="250" as="targetPoint" />
          </mxGeometry>
        </mxCell>
        <mxCell id="GP6uK6T3DXAP5hCjfbZW-35" value="" style="endArrow=classic;startArrow=classic;html=1;rounded=0;fontSize=20;exitX=1;exitY=0.5;exitDx=0;exitDy=0;entryX=0;entryY=0.5;entryDx=0;entryDy=0;" edge="1" parent="1" source="GP6uK6T3DXAP5hCjfbZW-22" target="GP6uK6T3DXAP5hCjfbZW-23">
          <mxGeometry width="50" height="50" relative="1" as="geometry">
            <mxPoint x="400" y="300" as="sourcePoint" />
            <mxPoint x="450" y="250" as="targetPoint" />
          </mxGeometry>
        </mxCell>
        <mxCell id="GP6uK6T3DXAP5hCjfbZW-36" value="" style="endArrow=classic;startArrow=classic;html=1;rounded=0;fontSize=20;exitX=1;exitY=0.5;exitDx=0;exitDy=0;entryX=0;entryY=0.5;entryDx=0;entryDy=0;" edge="1" parent="1" source="GP6uK6T3DXAP5hCjfbZW-21" target="GP6uK6T3DXAP5hCjfbZW-22">
          <mxGeometry width="50" height="50" relative="1" as="geometry">
            <mxPoint x="400" y="300" as="sourcePoint" />
            <mxPoint x="450" y="250" as="targetPoint" />
          </mxGeometry>
        </mxCell>
        <mxCell id="GP6uK6T3DXAP5hCjfbZW-37" value="" style="endArrow=classic;startArrow=classic;html=1;rounded=0;fontSize=20;exitX=0.5;exitY=1;exitDx=0;exitDy=0;entryX=0.5;entryY=0;entryDx=0;entryDy=0;entryPerimeter=0;" edge="1" parent="1" source="GP6uK6T3DXAP5hCjfbZW-23" target="GP6uK6T3DXAP5hCjfbZW-28">
          <mxGeometry width="50" height="50" relative="1" as="geometry">
            <mxPoint x="400" y="300" as="sourcePoint" />
            <mxPoint x="450" y="250" as="targetPoint" />
          </mxGeometry>
        </mxCell>
        <mxCell id="GP6uK6T3DXAP5hCjfbZW-38" value="" style="endArrow=classic;startArrow=classic;html=1;rounded=0;fontSize=20;exitX=1;exitY=0.5;exitDx=0;exitDy=0;entryX=0;entryY=0.5;entryDx=0;entryDy=0;" edge="1" parent="1" source="GP6uK6T3DXAP5hCjfbZW-30" target="GP6uK6T3DXAP5hCjfbZW-32">
          <mxGeometry width="50" height="50" relative="1" as="geometry">
            <mxPoint x="400" y="300" as="sourcePoint" />
            <mxPoint x="450" y="250" as="targetPoint" />
          </mxGeometry>
        </mxCell>
        <mxCell id="GP6uK6T3DXAP5hCjfbZW-39" value="" style="endArrow=classic;startArrow=classic;html=1;rounded=0;fontSize=20;exitX=1;exitY=0.5;exitDx=0;exitDy=0;entryX=0;entryY=0;entryDx=0;entryDy=47.5;entryPerimeter=0;" edge="1" parent="1" source="GP6uK6T3DXAP5hCjfbZW-32" target="GP6uK6T3DXAP5hCjfbZW-28">
          <mxGeometry width="50" height="50" relative="1" as="geometry">
            <mxPoint x="400" y="300" as="sourcePoint" />
            <mxPoint x="450" y="250" as="targetPoint" />
          </mxGeometry>
        </mxCell>
        <mxCell id="GP6uK6T3DXAP5hCjfbZW-40" value="系统架构" style="rounded=1;whiteSpace=wrap;html=1;fontSize=20;" vertex="1" parent="1">
          <mxGeometry x="80" y="340" width="120" height="60" as="geometry" />
        </mxCell>
        <mxCell id="GP6uK6T3DXAP5hCjfbZW-43" value="系统架构模块" style="rounded=1;whiteSpace=wrap;html=1;fontSize=20;" vertex="1" parent="1">
          <mxGeometry x="350" y="340" width="120" height="60" as="geometry" />
        </mxCell>
        <mxCell id="GP6uK6T3DXAP5hCjfbZW-44" value="" style="endArrow=classic;startArrow=classic;html=1;rounded=0;fontSize=20;exitX=-0.023;exitY=0.626;exitDx=0;exitDy=0;exitPerimeter=0;entryX=1;entryY=0.5;entryDx=0;entryDy=0;" edge="1" parent="1" source="GP6uK6T3DXAP5hCjfbZW-28" target="GP6uK6T3DXAP5hCjfbZW-43">
          <mxGeometry width="50" height="50" relative="1" as="geometry">
            <mxPoint x="400" y="300" as="sourcePoint" />
            <mxPoint x="450" y="250" as="targetPoint" />
          </mxGeometry>
        </mxCell>
        <mxCell id="GP6uK6T3DXAP5hCjfbZW-45" value="" style="endArrow=classic;startArrow=classic;html=1;rounded=0;fontSize=20;exitX=1;exitY=0.5;exitDx=0;exitDy=0;entryX=0;entryY=0.5;entryDx=0;entryDy=0;" edge="1" parent="1" source="GP6uK6T3DXAP5hCjfbZW-40" target="GP6uK6T3DXAP5hCjfbZW-43">
          <mxGeometry width="50" height="50" relative="1" as="geometry">
            <mxPoint x="400" y="300" as="sourcePoint" />
            <mxPoint x="450" y="250" as="targetPoint" />
          </mxGeometry>
        </mxCell>
        <mxCell id="GP6uK6T3DXAP5hCjfbZW-46" value="上架软件" style="rounded=1;whiteSpace=wrap;html=1;fontSize=20;" vertex="1" parent="1">
          <mxGeometry x="80" y="470" width="120" height="60" as="geometry" />
        </mxCell>
        <mxCell id="GP6uK6T3DXAP5hCjfbZW-48" value="上架模块" style="rounded=1;whiteSpace=wrap;html=1;fontSize=20;" vertex="1" parent="1">
          <mxGeometry x="350" y="470" width="120" height="60" as="geometry" />
        </mxCell>
        <mxCell id="GP6uK6T3DXAP5hCjfbZW-49" value="" style="endArrow=classic;startArrow=classic;html=1;rounded=0;fontSize=20;exitX=1;exitY=0.5;exitDx=0;exitDy=0;entryX=0;entryY=0.5;entryDx=0;entryDy=0;" edge="1" parent="1" source="GP6uK6T3DXAP5hCjfbZW-46" target="GP6uK6T3DXAP5hCjfbZW-48">
          <mxGeometry width="50" height="50" relative="1" as="geometry">
            <mxPoint x="400" y="490" as="sourcePoint" />
            <mxPoint x="450" y="440" as="targetPoint" />
          </mxGeometry>
        </mxCell>
        <mxCell id="GP6uK6T3DXAP5hCjfbZW-50" value="" style="endArrow=classic;startArrow=classic;html=1;rounded=0;fontSize=20;exitX=1;exitY=0.5;exitDx=0;exitDy=0;entryX=0;entryY=1;entryDx=0;entryDy=-15;entryPerimeter=0;" edge="1" parent="1" source="GP6uK6T3DXAP5hCjfbZW-48" target="GP6uK6T3DXAP5hCjfbZW-28">
          <mxGeometry width="50" height="50" relative="1" as="geometry">
            <mxPoint x="400" y="490" as="sourcePoint" />
            <mxPoint x="450" y="440" as="targetPoint" />
          </mxGeometry>
        </mxCell>
      </root>
    </mxGraphModel>
  </diagram>
</mxfile>
